<svg xmlns="http://www.w3.org/2000/svg" xmlns:xlink="http://www.w3.org/1999/xlink" width="1800" zoomAndPan="magnify" viewBox="0 0 1350 404.99999" height="540" preserveAspectRatio="xMidYMid meet" version="1.0"><defs><filter x="0%" y="0%" width="100%" height="100%" id="0e3c6d113f"><feColorMatrix values="0 0 0 0 1 0 0 0 0 1 0 0 0 0 1 0 0 0 1 0" color-interpolation-filters="sRGB"/></filter><g/><mask id="b45aa3c768"><g filter="url(#0e3c6d113f)"><rect x="-135" width="1620" fill="#000000" y="-40.499999" height="485.999988" fill-opacity="0.2"/></g></mask><clipPath id="05656c50e1"><path d="M 0 151 L 701.25 151 L 701.25 330 L 0 330 Z M 0 151 " clip-rule="nonzero"/></clipPath><clipPath id="dd995f50cd"><path d="M 0 75 L 701.25 75 L 701.25 178 L 0 178 Z M 0 75 " clip-rule="nonzero"/></clipPath><clipPath id="ca764a246d"><path d="M 43 302 L 658 302 L 658 405 L 43 405 Z M 43 302 " clip-rule="nonzero"/></clipPath><clipPath id="13e11ba9ba"><rect x="0" width="702" y="0" height="405"/></clipPath><mask id="9ca851dfd8"><g filter="url(#0e3c6d113f)"><rect x="-135" width="1620" fill="#000000" y="-40.499999" height="485.999988" fill-opacity="0.2"/></g></mask><clipPath id="2e7fe908f2"><path d="M 0.839844 151 L 651 151 L 651 330 L 0.839844 330 Z M 0.839844 151 " clip-rule="nonzero"/></clipPath><clipPath id="0457a0ab33"><path d="M 0.839844 75 L 651 75 L 651 178 L 0.839844 178 Z M 0.839844 75 " clip-rule="nonzero"/></clipPath><clipPath id="70a8a8509b"><path d="M 44 0 L 651 0 L 651 103 L 44 103 Z M 44 0 " clip-rule="nonzero"/></clipPath><clipPath id="e7e114bcd9"><path d="M 44 302 L 651 302 L 651 405 L 44 405 Z M 44 302 " clip-rule="nonzero"/></clipPath><clipPath id="d2448b886f"><rect x="0" width="651" y="0" height="405"/></clipPath><clipPath id="2445076bd4"><path d="M 631 56.652344 L 747 56.652344 L 747 174 L 631 174 Z M 631 56.652344 " clip-rule="nonzero"/></clipPath><clipPath id="59eeec642b"><path d="M 602.765625 101 L 719 101 L 719 218.652344 L 602.765625 218.652344 Z M 602.765625 101 " clip-rule="nonzero"/></clipPath></defs><g mask="url(#b45aa3c768)"><g><g clip-path="url(#13e11ba9ba)"><g clip-path="url(#05656c50e1)"><path fill="#ff7e55" d="M 701.1875 252.871094 L 700.773438 252.632812 L 700.773438 252.152344 L 700.355469 252.390625 L 657.058594 227.390625 L 657.058594 177.394531 L 657.472656 177.15625 L 657.058594 176.914062 L 657.058594 176.433594 L 656.640625 176.675781 L 612.925781 151.433594 L 569.210938 176.675781 L 525.496094 151.433594 L 481.785156 176.675781 L 438.070312 151.433594 L 394.355469 176.675781 L 350.640625 151.433594 L 307.292969 176.460938 L 306.925781 176.675781 L 306.558594 176.460938 L 263.210938 151.433594 L 219.863281 176.460938 L 219.496094 176.675781 L 219.15625 176.480469 L 175.78125 151.433594 L 132.433594 176.460938 L 132.066406 176.675781 L 131.699219 176.464844 L 88.351562 151.433594 L 44.636719 176.675781 L 44.21875 176.433594 L 44.21875 176.914062 L 43.804688 177.15625 L 44.21875 177.394531 L 44.21875 227.390625 L 0.921875 252.390625 L 0.503906 252.152344 L 0.503906 252.632812 L 0.0898438 252.871094 L 0.503906 253.113281 L 0.503906 303.585938 L 44.21875 328.828125 L 44.21875 329.308594 L 44.636719 329.066406 L 45.050781 329.308594 L 45.050781 328.828125 L 88.351562 303.824219 L 131.648438 328.828125 L 131.648438 329.308594 L 132.066406 329.066406 L 132.480469 329.308594 L 132.480469 328.828125 L 175.78125 303.824219 L 219.078125 328.828125 L 219.078125 329.308594 L 219.496094 329.066406 L 219.910156 329.308594 L 219.910156 328.828125 L 263.210938 303.824219 L 306.507812 328.828125 L 306.507812 329.308594 L 306.925781 329.066406 L 307.339844 329.308594 L 307.339844 328.828125 L 350.640625 303.824219 L 393.9375 328.828125 L 393.9375 329.308594 L 394.355469 329.066406 L 394.769531 329.308594 L 394.769531 328.828125 L 438.066406 303.824219 L 481.367188 328.828125 L 481.367188 329.308594 L 481.785156 329.066406 L 482.199219 329.308594 L 482.199219 328.828125 L 525.496094 303.824219 L 568.796875 328.828125 L 568.796875 329.308594 L 569.210938 329.066406 L 569.628906 329.308594 L 569.628906 328.828125 L 612.925781 303.824219 L 656.226562 328.828125 L 656.226562 329.308594 L 656.640625 329.066406 L 657.058594 329.308594 L 657.058594 328.828125 L 700.566406 303.703125 L 700.773438 303.585938 L 700.773438 253.113281 Z M 306.507812 227.386719 L 263.625 252.148438 L 263.625 202.632812 L 306.507812 177.875 Z M 219.078125 227.386719 L 176.195312 252.148438 L 176.195312 202.632812 L 219.078125 177.875 Z M 131.648438 227.386719 L 88.765625 252.148438 L 88.765625 202.632812 L 131.648438 177.875 Z M 393.9375 227.386719 L 351.054688 252.148438 L 351.054688 202.632812 L 393.9375 177.875 Z M 481.367188 227.386719 L 438.484375 252.148438 L 438.484375 202.632812 L 481.367188 177.875 Z M 568.796875 227.386719 L 525.914062 252.148438 L 525.914062 202.632812 L 568.796875 177.875 Z M 612.511719 202.632812 L 612.511719 252.148438 L 569.628906 227.386719 L 569.628906 177.875 L 574.054688 180.429688 Z M 525.082031 202.632812 L 525.082031 252.148438 L 482.199219 227.386719 L 482.199219 177.875 L 486.625 180.429688 Z M 437.652344 202.632812 L 437.652344 252.148438 L 394.769531 227.386719 L 394.769531 177.875 L 399.195312 180.429688 Z M 350.222656 202.632812 L 350.222656 252.148438 L 307.339844 227.386719 L 307.339844 177.875 L 326.707031 189.058594 Z M 262.792969 202.632812 L 262.792969 252.148438 L 219.910156 227.386719 L 219.910156 177.875 L 239.277344 189.058594 Z M 175.363281 202.632812 L 175.363281 252.148438 L 132.480469 227.386719 L 132.480469 177.875 L 151.851562 189.058594 Z M 132.066406 228.109375 L 174.949219 252.871094 L 132.066406 277.628906 L 89.183594 252.871094 Z M 219.496094 228.109375 L 262.378906 252.871094 L 219.496094 277.628906 L 176.613281 252.871094 Z M 306.925781 228.109375 L 349.808594 252.871094 L 306.925781 277.628906 L 264.042969 252.871094 Z M 394.355469 228.109375 L 437.234375 252.871094 L 394.355469 277.628906 L 351.472656 252.871094 Z M 481.785156 228.109375 L 524.664062 252.871094 L 481.785156 277.628906 L 438.902344 252.871094 Z M 569.210938 228.109375 L 612.09375 252.871094 L 569.210938 277.628906 L 526.332031 252.871094 Z M 656.226562 227.386719 L 613.34375 252.148438 L 613.34375 202.632812 L 656.226562 177.875 Z M 656.640625 277.628906 L 613.757812 252.871094 L 656.640625 228.109375 L 699.523438 252.871094 Z M 655.808594 177.15625 L 612.925781 201.910156 L 570.046875 177.15625 L 612.925781 152.390625 Z M 568.378906 177.15625 L 525.496094 201.910156 L 482.617188 177.15625 L 525.496094 152.390625 Z M 480.949219 177.15625 L 438.070312 201.910156 L 395.1875 177.15625 L 438.070312 152.390625 Z M 393.523438 177.15625 L 350.640625 201.910156 L 307.757812 177.15625 L 350.640625 152.390625 Z M 306.09375 177.15625 L 263.210938 201.910156 L 220.328125 177.15625 L 263.210938 152.390625 Z M 218.664062 177.15625 L 175.78125 201.910156 L 132.898438 177.15625 L 175.78125 152.390625 Z M 88.351562 152.390625 L 131.234375 177.15625 L 88.351562 201.910156 L 45.46875 177.15625 Z M 87.933594 202.632812 L 87.933594 252.148438 L 45.050781 227.386719 L 45.050781 177.875 L 64.421875 189.058594 Z M 44.636719 228.109375 L 87.519531 252.871094 L 44.636719 277.628906 L 1.753906 252.871094 Z M 1.335938 303.101562 L 1.335938 253.59375 L 20.707031 264.773438 L 44.21875 278.347656 L 44.21875 327.867188 Z M 45.050781 278.347656 L 87.933594 253.59375 L 87.933594 303.101562 L 45.050781 327.867188 Z M 88.765625 303.101562 L 88.765625 253.59375 L 108.136719 264.773438 L 131.648438 278.347656 L 131.648438 327.867188 Z M 132.480469 278.347656 L 175.363281 253.59375 L 175.363281 303.101562 L 132.480469 327.867188 Z M 176.195312 303.101562 L 176.195312 253.59375 L 195.308594 264.628906 L 219.078125 278.347656 L 219.078125 327.867188 Z M 219.910156 278.347656 L 262.792969 253.59375 L 262.792969 303.101562 L 219.910156 327.867188 Z M 263.625 303.101562 L 263.625 253.59375 L 282.992188 264.773438 L 306.507812 278.347656 L 306.507812 327.867188 Z M 307.339844 278.347656 L 350.222656 253.59375 L 350.222656 303.101562 L 307.339844 327.867188 Z M 351.054688 303.101562 L 351.054688 253.59375 L 355.480469 256.148438 L 393.9375 278.347656 L 393.9375 327.867188 Z M 394.769531 278.347656 L 437.652344 253.59375 L 437.652344 303.101562 L 394.769531 327.867188 Z M 438.484375 303.101562 L 438.484375 253.59375 L 442.910156 256.148438 L 481.367188 278.347656 L 481.367188 327.867188 Z M 482.199219 278.347656 L 525.082031 253.59375 L 525.082031 303.101562 L 482.199219 327.867188 Z M 525.914062 303.101562 L 525.914062 253.59375 L 530.339844 256.148438 L 568.796875 278.347656 L 568.796875 327.867188 Z M 569.628906 278.347656 L 612.511719 253.59375 L 612.511719 303.101562 L 569.628906 327.867188 Z M 613.34375 303.101562 L 613.34375 253.59375 L 617.769531 256.148438 L 656.226562 278.347656 L 656.226562 327.867188 Z M 699.941406 303.101562 L 657.058594 327.867188 L 657.058594 278.347656 L 699.941406 253.59375 Z M 699.941406 303.101562 " fill-opacity="1" fill-rule="nonzero"/></g><g clip-path="url(#dd995f50cd)"><path fill="#dba28f" d="M 701.1875 101.441406 L 700.773438 101.199219 L 700.773438 100.71875 L 700.355469 100.960938 L 656.640625 75.71875 L 612.925781 100.960938 L 569.210938 75.71875 L 525.496094 100.960938 L 481.785156 75.71875 L 438.070312 100.960938 L 394.355469 75.71875 L 350.640625 100.960938 L 350.269531 100.75 L 306.925781 75.71875 L 263.578125 100.746094 L 263.210938 100.960938 L 262.84375 100.75 L 219.496094 75.71875 L 176.121094 100.765625 L 175.78125 100.960938 L 175.414062 100.75 L 132.066406 75.71875 L 88.71875 100.746094 L 88.351562 100.960938 L 87.984375 100.75 L 44.636719 75.71875 L 0.921875 100.960938 L 0.503906 100.71875 L 0.503906 101.199219 L 0.0898438 101.441406 L 0.503906 101.679688 L 0.503906 152.152344 L 44.21875 177.394531 L 44.21875 177.875 L 44.636719 177.636719 L 45.050781 177.875 L 45.050781 177.394531 L 88.351562 152.394531 L 131.648438 177.394531 L 131.648438 177.875 L 132.066406 177.636719 L 132.480469 177.875 L 132.480469 177.394531 L 175.78125 152.394531 L 219.078125 177.394531 L 219.078125 177.875 L 219.496094 177.636719 L 219.910156 177.875 L 219.910156 177.394531 L 263.210938 152.394531 L 306.507812 177.394531 L 306.507812 177.875 L 306.925781 177.636719 L 307.339844 177.875 L 307.339844 177.394531 L 350.640625 152.394531 L 393.9375 177.394531 L 393.9375 177.875 L 394.355469 177.636719 L 394.769531 177.875 L 394.769531 177.394531 L 438.066406 152.394531 L 481.367188 177.394531 L 481.367188 177.875 L 481.785156 177.636719 L 482.199219 177.875 L 482.199219 177.394531 L 525.496094 152.394531 L 568.796875 177.394531 L 568.796875 177.875 L 569.210938 177.636719 L 569.628906 177.875 L 569.628906 177.394531 L 612.925781 152.394531 L 656.226562 177.394531 L 656.226562 177.875 L 656.640625 177.636719 L 657.058594 177.875 L 657.058594 177.394531 L 700.566406 152.273438 L 700.773438 152.152344 L 700.773438 101.679688 Z M 699.523438 101.441406 L 656.640625 126.195312 L 613.757812 101.441406 L 656.640625 76.679688 Z M 612.09375 101.441406 L 569.210938 126.195312 L 526.332031 101.441406 L 569.210938 76.679688 Z M 524.664062 101.441406 L 481.785156 126.195312 L 438.902344 101.441406 L 481.785156 76.679688 Z M 437.234375 101.441406 L 394.355469 126.195312 L 351.472656 101.441406 L 394.355469 76.679688 Z M 349.808594 101.441406 L 306.925781 126.195312 L 264.042969 101.441406 L 306.925781 76.679688 Z M 262.378906 101.441406 L 219.496094 126.195312 L 176.613281 101.441406 L 219.496094 76.679688 Z M 174.949219 101.441406 L 132.066406 126.195312 L 89.183594 101.441406 L 132.066406 76.679688 Z M 44.636719 76.679688 L 87.519531 101.441406 L 44.636719 126.195312 L 1.753906 101.441406 Z M 1.335938 151.671875 L 1.335938 102.160156 L 20.707031 113.34375 L 44.21875 126.917969 L 44.21875 176.433594 Z M 45.050781 126.917969 L 87.933594 102.160156 L 87.933594 151.671875 L 45.050781 176.433594 Z M 88.765625 151.671875 L 88.765625 102.160156 L 108.136719 113.34375 L 131.648438 126.917969 L 131.648438 176.433594 Z M 132.480469 126.917969 L 175.363281 102.160156 L 175.363281 151.671875 L 132.480469 176.433594 Z M 176.195312 151.671875 L 176.195312 102.160156 L 195.308594 113.195312 L 219.078125 126.917969 L 219.078125 176.433594 Z M 219.910156 126.917969 L 262.792969 102.160156 L 262.792969 151.671875 L 219.910156 176.433594 Z M 263.625 151.671875 L 263.625 102.160156 L 282.992188 113.34375 L 306.507812 126.917969 L 306.507812 176.433594 Z M 307.339844 126.917969 L 350.222656 102.160156 L 350.222656 151.671875 L 307.339844 176.433594 Z M 351.054688 151.671875 L 351.054688 102.160156 L 355.480469 104.714844 L 393.9375 126.917969 L 393.9375 176.433594 Z M 394.769531 126.917969 L 437.652344 102.160156 L 437.652344 151.671875 L 394.769531 176.433594 Z M 438.484375 151.671875 L 438.484375 102.160156 L 442.910156 104.714844 L 481.367188 126.917969 L 481.367188 176.433594 Z M 482.199219 126.917969 L 525.082031 102.160156 L 525.082031 151.671875 L 482.199219 176.433594 Z M 525.914062 151.671875 L 525.914062 102.160156 L 530.339844 104.714844 L 568.796875 126.917969 L 568.796875 176.433594 Z M 569.628906 126.917969 L 612.511719 102.160156 L 612.511719 151.671875 L 569.628906 176.433594 Z M 613.34375 151.671875 L 613.34375 102.160156 L 617.769531 104.714844 L 656.226562 126.917969 L 656.226562 176.433594 Z M 699.941406 151.671875 L 657.058594 176.433594 L 657.058594 126.917969 L 699.941406 102.160156 Z M 699.941406 151.671875 " fill-opacity="1" fill-rule="nonzero"/></g><path fill="#fab272" d="M 657.058594 25.964844 L 657.472656 25.722656 L 657.058594 25.484375 L 657.058594 25.003906 L 656.640625 25.242188 L 612.925781 0 L 569.210938 25.242188 L 525.496094 0 L 481.785156 25.242188 L 438.070312 0 L 394.355469 25.242188 L 350.640625 0 L 307.289062 25.03125 L 306.925781 25.242188 L 306.5625 25.03125 L 263.210938 0 L 219.855469 25.035156 L 219.496094 25.242188 L 219.164062 25.050781 L 175.78125 0 L 132.429688 25.03125 L 132.066406 25.242188 L 131.703125 25.035156 L 88.351562 0 L 44.636719 25.242188 L 44.21875 25.003906 L 44.21875 25.484375 L 43.804688 25.722656 L 44.21875 25.964844 L 44.21875 76.433594 L 87.933594 101.675781 L 87.933594 102.15625 L 88.351562 101.917969 L 88.765625 102.15625 L 88.765625 101.675781 L 132.066406 76.675781 L 175.363281 101.675781 L 175.363281 102.15625 L 175.78125 101.917969 L 176.195312 102.15625 L 176.195312 101.675781 L 219.496094 76.675781 L 262.792969 101.675781 L 262.792969 102.15625 L 263.210938 101.917969 L 263.625 102.15625 L 263.625 101.675781 L 306.925781 76.675781 L 350.222656 101.675781 L 350.222656 102.15625 L 350.640625 101.917969 L 351.054688 102.15625 L 351.054688 101.675781 L 394.355469 76.675781 L 437.652344 101.675781 L 437.652344 102.15625 L 438.070312 101.917969 L 438.484375 102.15625 L 438.484375 101.675781 L 481.785156 76.675781 L 525.082031 101.675781 L 525.082031 102.15625 L 525.496094 101.917969 L 525.914062 102.15625 L 525.914062 101.675781 L 569.210938 76.675781 L 612.511719 101.675781 L 612.511719 102.15625 L 612.925781 101.917969 L 613.34375 102.15625 L 613.34375 101.675781 L 657.058594 76.433594 Z M 655.808594 25.722656 L 650.179688 28.972656 L 612.925781 50.480469 L 575.675781 28.972656 L 570.046875 25.722656 L 612.925781 0.960938 Z M 568.378906 25.722656 L 562.75 28.972656 L 525.496094 50.480469 L 488.246094 28.972656 L 482.617188 25.722656 L 525.496094 0.960938 Z M 480.949219 25.722656 L 475.320312 28.972656 L 438.070312 50.480469 L 400.816406 28.972656 L 395.1875 25.722656 L 438.070312 0.960938 Z M 393.523438 25.722656 L 382.90625 31.851562 L 350.640625 50.480469 L 336.714844 42.441406 L 307.757812 25.722656 L 350.640625 0.960938 Z M 306.09375 25.722656 L 271.507812 45.6875 L 263.210938 50.480469 L 237.734375 35.769531 L 220.328125 25.722656 L 263.210938 0.960938 Z M 218.664062 25.722656 L 184.132812 45.65625 L 175.78125 50.480469 L 150.304688 35.769531 L 132.898438 25.722656 L 175.78125 0.960938 Z M 88.351562 0.960938 L 131.234375 25.722656 L 96.648438 45.6875 L 88.351562 50.480469 L 62.875 35.769531 L 45.46875 25.722656 Z M 45.050781 75.953125 L 45.050781 26.445312 L 62.457031 36.492188 L 87.933594 51.199219 L 87.933594 100.714844 Z M 88.765625 51.199219 L 114.242188 36.492188 L 131.648438 26.445312 L 131.648438 75.953125 L 88.765625 100.714844 Z M 132.480469 75.953125 L 132.480469 26.445312 L 149.886719 36.492188 L 175.363281 51.199219 L 175.363281 100.714844 Z M 176.195312 51.199219 L 201.894531 36.363281 L 219.078125 26.445312 L 219.078125 75.953125 L 176.195312 100.714844 Z M 219.910156 75.953125 L 219.910156 26.445312 L 237.316406 36.492188 L 262.792969 51.199219 L 262.792969 100.714844 Z M 263.625 51.199219 L 289.101562 36.492188 L 306.507812 26.445312 L 306.507812 75.953125 L 263.625 100.714844 Z M 307.339844 75.953125 L 307.339844 26.445312 L 324.746094 36.492188 L 350.222656 51.199219 L 350.222656 100.714844 Z M 351.054688 51.199219 L 392.140625 27.480469 L 393.9375 26.445312 L 393.9375 75.953125 L 351.054688 100.714844 Z M 394.769531 75.953125 L 394.769531 26.445312 L 396.566406 27.480469 L 437.652344 51.199219 L 437.652344 100.714844 Z M 438.484375 51.199219 L 479.570312 27.480469 L 481.367188 26.445312 L 481.367188 75.953125 L 438.484375 100.714844 Z M 482.199219 75.953125 L 482.199219 26.445312 L 483.996094 27.480469 L 525.082031 51.199219 L 525.082031 100.714844 Z M 525.914062 51.199219 L 567 27.480469 L 568.796875 26.445312 L 568.796875 75.953125 L 525.914062 100.714844 Z M 569.628906 75.953125 L 569.628906 26.445312 L 571.425781 27.480469 L 612.511719 51.199219 L 612.511719 100.714844 Z M 656.226562 75.953125 L 613.34375 100.714844 L 613.34375 51.199219 L 654.429688 27.480469 L 656.226562 26.445312 Z M 656.226562 75.953125 " fill-opacity="1" fill-rule="nonzero"/><g clip-path="url(#ca764a246d)"><path fill="#ff5722" d="M 657.472656 328.589844 L 657.058594 328.351562 L 657.058594 327.871094 L 656.640625 328.109375 L 612.925781 302.867188 L 569.210938 328.109375 L 525.496094 302.867188 L 481.785156 328.109375 L 438.070312 302.867188 L 394.355469 328.109375 L 350.640625 302.867188 L 307.292969 327.898438 L 306.925781 328.109375 L 306.558594 327.898438 L 263.210938 302.867188 L 219.863281 327.898438 L 219.496094 328.109375 L 219.15625 327.914062 L 175.78125 302.867188 L 132.433594 327.898438 L 132.066406 328.109375 L 131.699219 327.898438 L 88.351562 302.867188 L 44.636719 328.109375 L 44.21875 327.871094 L 44.21875 328.351562 L 43.804688 328.589844 L 44.21875 328.832031 L 44.21875 379.300781 L 87.933594 404.546875 L 87.933594 405.027344 L 88.351562 404.785156 L 88.765625 405.027344 L 88.765625 404.546875 L 132.066406 379.542969 L 175.363281 404.546875 L 175.363281 405.027344 L 175.78125 404.785156 L 176.195312 405.027344 L 176.195312 404.546875 L 219.496094 379.542969 L 262.792969 404.546875 L 262.792969 405.027344 L 263.210938 404.785156 L 263.625 405.027344 L 263.625 404.546875 L 306.925781 379.542969 L 350.222656 404.546875 L 350.222656 405.027344 L 350.640625 404.785156 L 351.054688 405.027344 L 351.054688 404.546875 L 394.351562 379.542969 L 437.652344 404.542969 L 437.652344 405.027344 L 438.070312 404.785156 L 438.484375 405.027344 L 438.484375 404.542969 L 481.78125 379.542969 L 525.082031 404.542969 L 525.082031 405.027344 L 525.496094 404.785156 L 525.914062 405.027344 L 525.914062 404.542969 L 569.210938 379.542969 L 612.511719 404.542969 L 612.511719 405.027344 L 612.925781 404.785156 L 613.34375 405.027344 L 613.34375 404.542969 L 656.851562 379.421875 L 657.058594 379.300781 L 657.058594 328.832031 Z M 655.808594 328.589844 L 612.925781 353.34375 L 570.046875 328.589844 L 612.925781 303.828125 Z M 568.378906 328.589844 L 525.496094 353.34375 L 482.617188 328.589844 L 525.496094 303.828125 Z M 480.949219 328.589844 L 438.070312 353.34375 L 395.1875 328.589844 L 438.070312 303.828125 Z M 393.523438 328.589844 L 350.640625 353.34375 L 307.757812 328.589844 L 350.640625 303.828125 Z M 306.09375 328.589844 L 263.210938 353.34375 L 220.328125 328.589844 L 263.210938 303.828125 Z M 218.664062 328.589844 L 175.78125 353.34375 L 132.898438 328.589844 L 175.78125 303.828125 Z M 88.351562 303.828125 L 131.234375 328.589844 L 88.351562 353.34375 L 45.46875 328.589844 Z M 45.050781 378.820312 L 45.050781 329.3125 L 64.421875 340.492188 L 87.933594 354.066406 L 87.933594 403.582031 Z M 88.765625 354.066406 L 131.648438 329.3125 L 131.648438 378.820312 L 88.765625 403.582031 Z M 132.480469 378.820312 L 132.480469 329.3125 L 151.851562 340.492188 L 175.363281 354.066406 L 175.363281 403.582031 Z M 176.195312 354.066406 L 219.078125 329.3125 L 219.078125 378.820312 L 176.195312 403.582031 Z M 219.910156 378.820312 L 219.910156 329.3125 L 239.277344 340.492188 L 262.792969 354.066406 L 262.792969 403.582031 Z M 263.625 354.066406 L 306.507812 329.3125 L 306.507812 378.820312 L 263.625 403.582031 Z M 307.339844 378.820312 L 307.339844 329.3125 L 326.707031 340.492188 L 350.222656 354.066406 L 350.222656 403.582031 Z M 351.054688 354.066406 L 393.9375 329.3125 L 393.9375 378.820312 L 351.054688 403.582031 Z M 394.769531 378.820312 L 394.769531 329.3125 L 399.195312 331.867188 L 437.652344 354.066406 L 437.652344 403.582031 Z M 438.484375 354.066406 L 481.367188 329.3125 L 481.367188 378.820312 L 438.484375 403.582031 Z M 482.199219 378.820312 L 482.199219 329.3125 L 486.625 331.867188 L 525.082031 354.066406 L 525.082031 403.582031 Z M 525.914062 354.066406 L 568.796875 329.3125 L 568.796875 378.820312 L 525.914062 403.582031 Z M 569.628906 378.820312 L 569.628906 329.3125 L 574.054688 331.867188 L 612.511719 354.066406 L 612.511719 403.582031 Z M 656.226562 378.820312 L 613.34375 403.582031 L 613.34375 354.066406 L 656.226562 329.3125 Z M 656.226562 378.820312 " fill-opacity="1" fill-rule="nonzero"/></g></g></g></g><g mask="url(#9ca851dfd8)"><g transform="matrix(1, 0, 0, 1, 699, 0)"><g clip-path="url(#d2448b886f)"><g clip-path="url(#2e7fe908f2)"><path fill="#ff7e55" d="M 701.988281 252.871094 L 701.570312 252.632812 L 701.570312 252.152344 L 701.15625 252.390625 L 657.855469 227.390625 L 657.855469 177.394531 L 658.273438 177.15625 L 657.855469 176.914062 L 657.855469 176.433594 L 657.441406 176.675781 L 613.726562 151.433594 L 570.011719 176.675781 L 526.296875 151.433594 L 482.582031 176.675781 L 438.867188 151.433594 L 395.152344 176.675781 L 351.4375 151.433594 L 308.089844 176.460938 L 307.722656 176.675781 L 307.355469 176.460938 L 264.007812 151.433594 L 220.660156 176.460938 L 220.292969 176.675781 L 219.957031 176.480469 L 176.578125 151.433594 L 133.230469 176.460938 L 132.863281 176.675781 L 132.496094 176.464844 L 89.148438 151.433594 L 45.433594 176.675781 L 45.019531 176.433594 L 45.019531 176.914062 L 44.601562 177.15625 L 45.019531 177.394531 L 45.019531 227.390625 L 1.71875 252.390625 L 1.304688 252.152344 L 1.304688 252.632812 L 0.886719 252.871094 L 1.304688 253.113281 L 1.304688 303.585938 L 45.019531 328.828125 L 45.019531 329.308594 L 45.433594 329.066406 L 45.851562 329.308594 L 45.851562 328.828125 L 89.148438 303.824219 L 132.449219 328.828125 L 132.449219 329.308594 L 132.863281 329.066406 L 133.28125 329.308594 L 133.28125 328.828125 L 176.578125 303.824219 L 219.878906 328.828125 L 219.878906 329.308594 L 220.292969 329.066406 L 220.710938 329.308594 L 220.710938 328.828125 L 264.007812 303.824219 L 307.308594 328.828125 L 307.308594 329.308594 L 307.722656 329.066406 L 308.140625 329.308594 L 308.140625 328.828125 L 351.4375 303.824219 L 394.734375 328.828125 L 394.734375 329.308594 L 395.152344 329.066406 L 395.570312 329.308594 L 395.570312 328.828125 L 438.867188 303.824219 L 482.164062 328.828125 L 482.164062 329.308594 L 482.582031 329.066406 L 483 329.308594 L 483 328.828125 L 526.296875 303.824219 L 569.59375 328.828125 L 569.59375 329.308594 L 570.011719 329.066406 L 570.429688 329.308594 L 570.429688 328.828125 L 613.726562 303.824219 L 657.023438 328.828125 L 657.023438 329.308594 L 657.441406 329.066406 L 657.855469 329.308594 L 657.855469 328.828125 L 701.363281 303.703125 L 701.570312 303.585938 L 701.570312 253.113281 Z M 307.308594 227.386719 L 264.425781 252.148438 L 264.425781 202.632812 L 307.308594 177.875 Z M 219.878906 227.386719 L 176.996094 252.148438 L 176.996094 202.632812 L 219.878906 177.875 Z M 132.449219 227.386719 L 89.566406 252.148438 L 89.566406 202.632812 L 132.449219 177.875 Z M 394.734375 227.386719 L 351.855469 252.148438 L 351.855469 202.632812 L 394.734375 177.875 Z M 482.164062 227.386719 L 439.285156 252.148438 L 439.285156 202.632812 L 482.164062 177.875 Z M 569.59375 227.386719 L 526.714844 252.148438 L 526.714844 202.632812 L 569.59375 177.875 Z M 613.308594 202.632812 L 613.308594 252.148438 L 570.429688 227.386719 L 570.429688 177.875 L 574.851562 180.429688 Z M 525.878906 202.632812 L 525.878906 252.148438 L 483 227.386719 L 483 177.875 L 487.421875 180.429688 Z M 438.449219 202.632812 L 438.449219 252.148438 L 395.570312 227.386719 L 395.570312 177.875 L 399.992188 180.429688 Z M 351.023438 202.632812 L 351.023438 252.148438 L 308.140625 227.386719 L 308.140625 177.875 L 327.507812 189.058594 Z M 263.59375 202.632812 L 263.59375 252.148438 L 220.710938 227.386719 L 220.710938 177.875 L 240.078125 189.058594 Z M 176.164062 202.632812 L 176.164062 252.148438 L 133.28125 227.386719 L 133.28125 177.875 L 152.648438 189.058594 Z M 132.863281 228.109375 L 175.746094 252.871094 L 132.863281 277.628906 L 89.980469 252.871094 Z M 220.292969 228.109375 L 263.175781 252.871094 L 220.292969 277.628906 L 177.410156 252.871094 Z M 307.722656 228.109375 L 350.605469 252.871094 L 307.722656 277.628906 L 264.839844 252.871094 Z M 395.152344 228.109375 L 438.035156 252.871094 L 395.152344 277.628906 L 352.269531 252.871094 Z M 482.582031 228.109375 L 525.464844 252.871094 L 482.582031 277.628906 L 439.699219 252.871094 Z M 570.011719 228.109375 L 612.894531 252.871094 L 570.011719 277.628906 L 527.128906 252.871094 Z M 657.023438 227.386719 L 614.140625 252.148438 L 614.140625 202.632812 L 657.023438 177.875 Z M 657.441406 277.628906 L 614.558594 252.871094 L 657.441406 228.109375 L 700.324219 252.871094 Z M 656.609375 177.15625 L 613.726562 201.910156 L 570.84375 177.15625 L 613.726562 152.390625 Z M 569.179688 177.15625 L 526.296875 201.910156 L 483.414062 177.15625 L 526.296875 152.390625 Z M 481.75 177.15625 L 438.867188 201.910156 L 395.984375 177.15625 L 438.867188 152.390625 Z M 394.320312 177.15625 L 351.4375 201.910156 L 308.554688 177.15625 L 351.4375 152.390625 Z M 306.890625 177.15625 L 264.007812 201.910156 L 221.125 177.15625 L 264.007812 152.390625 Z M 219.460938 177.15625 L 176.578125 201.910156 L 133.695312 177.15625 L 176.578125 152.390625 Z M 89.148438 152.390625 L 132.03125 177.15625 L 89.148438 201.910156 L 46.265625 177.15625 Z M 88.734375 202.632812 L 88.734375 252.148438 L 45.851562 227.386719 L 45.851562 177.875 L 65.21875 189.058594 Z M 45.433594 228.109375 L 88.316406 252.871094 L 45.433594 277.628906 L 2.554688 252.871094 Z M 2.136719 303.101562 L 2.136719 253.59375 L 21.503906 264.773438 L 45.019531 278.347656 L 45.019531 327.867188 Z M 45.851562 278.347656 L 88.734375 253.59375 L 88.734375 303.101562 L 45.851562 327.867188 Z M 89.566406 303.101562 L 89.566406 253.59375 L 108.933594 264.773438 L 132.449219 278.347656 L 132.449219 327.867188 Z M 133.28125 278.347656 L 176.164062 253.59375 L 176.164062 303.101562 L 133.28125 327.867188 Z M 176.996094 303.101562 L 176.996094 253.59375 L 196.109375 264.628906 L 219.878906 278.347656 L 219.878906 327.867188 Z M 220.710938 278.347656 L 263.59375 253.59375 L 263.59375 303.101562 L 220.710938 327.867188 Z M 264.425781 303.101562 L 264.425781 253.59375 L 283.792969 264.773438 L 307.308594 278.347656 L 307.308594 327.867188 Z M 308.140625 278.347656 L 351.023438 253.59375 L 351.023438 303.101562 L 308.140625 327.867188 Z M 351.855469 303.101562 L 351.855469 253.59375 L 356.277344 256.148438 L 394.734375 278.347656 L 394.734375 327.867188 Z M 395.570312 278.347656 L 438.449219 253.59375 L 438.449219 303.101562 L 395.570312 327.867188 Z M 439.285156 303.101562 L 439.285156 253.59375 L 443.707031 256.148438 L 482.164062 278.347656 L 482.164062 327.867188 Z M 483 278.347656 L 525.878906 253.59375 L 525.878906 303.101562 L 483 327.867188 Z M 526.714844 303.101562 L 526.714844 253.59375 L 531.136719 256.148438 L 569.59375 278.347656 L 569.59375 327.867188 Z M 570.429688 278.347656 L 613.308594 253.59375 L 613.308594 303.101562 L 570.429688 327.867188 Z M 614.140625 303.101562 L 614.140625 253.59375 L 618.566406 256.148438 L 657.023438 278.347656 L 657.023438 327.867188 Z M 700.738281 303.101562 L 657.855469 327.867188 L 657.855469 278.347656 L 700.738281 253.59375 Z M 700.738281 303.101562 " fill-opacity="1" fill-rule="nonzero"/></g><g clip-path="url(#0457a0ab33)"><path fill="#dba28f" d="M 701.988281 101.441406 L 701.570312 101.199219 L 701.570312 100.71875 L 701.15625 100.960938 L 657.441406 75.71875 L 613.726562 100.960938 L 570.011719 75.71875 L 526.296875 100.960938 L 482.582031 75.71875 L 438.867188 100.960938 L 395.152344 75.71875 L 351.4375 100.960938 L 351.070312 100.75 L 307.722656 75.71875 L 264.375 100.746094 L 264.007812 100.960938 L 263.640625 100.75 L 220.292969 75.71875 L 176.917969 100.765625 L 176.578125 100.960938 L 176.214844 100.75 L 132.863281 75.71875 L 89.519531 100.746094 L 89.148438 100.960938 L 88.785156 100.75 L 45.433594 75.71875 L 1.71875 100.960938 L 1.304688 100.71875 L 1.304688 101.199219 L 0.886719 101.441406 L 1.304688 101.679688 L 1.304688 152.152344 L 45.019531 177.394531 L 45.019531 177.875 L 45.433594 177.636719 L 45.851562 177.875 L 45.851562 177.394531 L 89.148438 152.394531 L 132.449219 177.394531 L 132.449219 177.875 L 132.863281 177.636719 L 133.28125 177.875 L 133.28125 177.394531 L 176.578125 152.394531 L 219.878906 177.394531 L 219.878906 177.875 L 220.292969 177.636719 L 220.710938 177.875 L 220.710938 177.394531 L 264.007812 152.394531 L 307.308594 177.394531 L 307.308594 177.875 L 307.722656 177.636719 L 308.140625 177.875 L 308.140625 177.394531 L 351.4375 152.394531 L 394.734375 177.394531 L 394.734375 177.875 L 395.152344 177.636719 L 395.570312 177.875 L 395.570312 177.394531 L 438.867188 152.394531 L 482.164062 177.394531 L 482.164062 177.875 L 482.582031 177.636719 L 483 177.875 L 483 177.394531 L 526.296875 152.394531 L 569.59375 177.394531 L 569.59375 177.875 L 570.011719 177.636719 L 570.429688 177.875 L 570.429688 177.394531 L 613.726562 152.394531 L 657.023438 177.394531 L 657.023438 177.875 L 657.441406 177.636719 L 657.855469 177.875 L 657.855469 177.394531 L 701.363281 152.273438 L 701.570312 152.152344 L 701.570312 101.679688 Z M 700.324219 101.441406 L 657.441406 126.195312 L 614.558594 101.441406 L 657.441406 76.679688 Z M 612.894531 101.441406 L 570.011719 126.195312 L 527.128906 101.441406 L 570.011719 76.679688 Z M 525.464844 101.441406 L 482.582031 126.195312 L 439.699219 101.441406 L 482.582031 76.679688 Z M 438.035156 101.441406 L 395.152344 126.195312 L 352.269531 101.441406 L 395.152344 76.679688 Z M 350.605469 101.441406 L 307.722656 126.195312 L 264.839844 101.441406 L 307.722656 76.679688 Z M 263.175781 101.441406 L 220.292969 126.195312 L 177.410156 101.441406 L 220.292969 76.679688 Z M 175.746094 101.441406 L 132.863281 126.195312 L 89.980469 101.441406 L 132.863281 76.679688 Z M 45.433594 76.679688 L 88.316406 101.441406 L 45.433594 126.195312 L 2.554688 101.441406 Z M 2.136719 151.671875 L 2.136719 102.160156 L 21.503906 113.34375 L 45.019531 126.917969 L 45.019531 176.433594 Z M 45.851562 126.917969 L 88.734375 102.160156 L 88.734375 151.671875 L 45.851562 176.433594 Z M 89.566406 151.671875 L 89.566406 102.160156 L 108.933594 113.34375 L 132.449219 126.917969 L 132.449219 176.433594 Z M 133.28125 126.917969 L 176.164062 102.160156 L 176.164062 151.671875 L 133.28125 176.433594 Z M 176.996094 151.671875 L 176.996094 102.160156 L 196.109375 113.195312 L 219.878906 126.917969 L 219.878906 176.433594 Z M 220.710938 126.917969 L 263.59375 102.160156 L 263.59375 151.671875 L 220.710938 176.433594 Z M 264.425781 151.671875 L 264.425781 102.160156 L 283.792969 113.34375 L 307.308594 126.917969 L 307.308594 176.433594 Z M 308.140625 126.917969 L 351.023438 102.160156 L 351.023438 151.671875 L 308.140625 176.433594 Z M 351.855469 151.671875 L 351.855469 102.160156 L 356.277344 104.714844 L 394.734375 126.917969 L 394.734375 176.433594 Z M 395.570312 126.917969 L 438.449219 102.160156 L 438.449219 151.671875 L 395.570312 176.433594 Z M 439.285156 151.671875 L 439.285156 102.160156 L 443.707031 104.714844 L 482.164062 126.917969 L 482.164062 176.433594 Z M 483 126.917969 L 525.878906 102.160156 L 525.878906 151.671875 L 483 176.433594 Z M 526.714844 151.671875 L 526.714844 102.160156 L 531.136719 104.714844 L 569.59375 126.917969 L 569.59375 176.433594 Z M 570.429688 126.917969 L 613.308594 102.160156 L 613.308594 151.671875 L 570.429688 176.433594 Z M 614.140625 151.671875 L 614.140625 102.160156 L 618.566406 104.714844 L 657.023438 126.917969 L 657.023438 176.433594 Z M 700.738281 151.671875 L 657.855469 176.433594 L 657.855469 126.917969 L 700.738281 102.160156 Z M 700.738281 151.671875 " fill-opacity="1" fill-rule="nonzero"/></g><g clip-path="url(#70a8a8509b)"><path fill="#fab272" d="M 657.855469 25.964844 L 658.273438 25.722656 L 657.855469 25.484375 L 657.855469 25.003906 L 657.441406 25.242188 L 613.726562 0 L 570.011719 25.242188 L 526.296875 0 L 482.582031 25.242188 L 438.867188 0 L 395.152344 25.242188 L 351.4375 0 L 308.085938 25.03125 L 307.722656 25.242188 L 307.359375 25.03125 L 264.007812 0 L 220.65625 25.035156 L 220.292969 25.242188 L 219.960938 25.050781 L 176.578125 0 L 133.226562 25.03125 L 132.863281 25.242188 L 132.503906 25.035156 L 89.148438 0 L 45.433594 25.242188 L 45.019531 25.003906 L 45.019531 25.484375 L 44.601562 25.722656 L 45.019531 25.964844 L 45.019531 76.433594 L 88.734375 101.675781 L 88.734375 102.15625 L 89.148438 101.917969 L 89.566406 102.15625 L 89.566406 101.675781 L 132.863281 76.675781 L 176.164062 101.675781 L 176.164062 102.15625 L 176.578125 101.917969 L 176.996094 102.15625 L 176.996094 101.675781 L 220.292969 76.675781 L 263.59375 101.675781 L 263.59375 102.15625 L 264.007812 101.917969 L 264.425781 102.15625 L 264.425781 101.675781 L 307.722656 76.675781 L 351.023438 101.675781 L 351.023438 102.15625 L 351.4375 101.917969 L 351.855469 102.15625 L 351.855469 101.675781 L 395.152344 76.675781 L 438.449219 101.675781 L 438.449219 102.15625 L 438.867188 101.917969 L 439.285156 102.15625 L 439.285156 101.675781 L 482.582031 76.675781 L 525.878906 101.675781 L 525.878906 102.15625 L 526.296875 101.917969 L 526.714844 102.15625 L 526.714844 101.675781 L 570.011719 76.675781 L 613.308594 101.675781 L 613.308594 102.15625 L 613.726562 101.917969 L 614.140625 102.15625 L 614.140625 101.675781 L 657.855469 76.433594 Z M 656.609375 25.722656 L 650.976562 28.972656 L 613.726562 50.480469 L 576.476562 28.972656 L 570.84375 25.722656 L 613.726562 0.960938 Z M 569.179688 25.722656 L 563.546875 28.972656 L 526.296875 50.480469 L 489.046875 28.972656 L 483.414062 25.722656 L 526.296875 0.960938 Z M 481.75 25.722656 L 476.117188 28.972656 L 438.867188 50.480469 L 401.617188 28.972656 L 395.984375 25.722656 L 438.867188 0.960938 Z M 394.320312 25.722656 L 383.703125 31.851562 L 351.4375 50.480469 L 337.511719 42.441406 L 308.554688 25.722656 L 351.4375 0.960938 Z M 306.890625 25.722656 L 272.304688 45.6875 L 264.007812 50.480469 L 238.53125 35.769531 L 221.125 25.722656 L 264.007812 0.960938 Z M 219.460938 25.722656 L 184.933594 45.65625 L 176.578125 50.480469 L 151.101562 35.769531 L 133.695312 25.722656 L 176.578125 0.960938 Z M 89.148438 0.960938 L 132.03125 25.722656 L 97.449219 45.6875 L 89.148438 50.480469 L 63.671875 35.769531 L 46.265625 25.722656 Z M 45.851562 75.953125 L 45.851562 26.445312 L 63.257812 36.492188 L 88.734375 51.199219 L 88.734375 100.714844 Z M 89.566406 51.199219 L 115.042969 36.492188 L 132.449219 26.445312 L 132.449219 75.953125 L 89.566406 100.714844 Z M 133.28125 75.953125 L 133.28125 26.445312 L 150.6875 36.492188 L 176.164062 51.199219 L 176.164062 100.714844 Z M 176.996094 51.199219 L 202.695312 36.363281 L 219.878906 26.445312 L 219.878906 75.953125 L 176.996094 100.714844 Z M 220.710938 75.953125 L 220.710938 26.445312 L 238.117188 36.492188 L 263.59375 51.199219 L 263.59375 100.714844 Z M 264.425781 51.199219 L 289.902344 36.492188 L 307.308594 26.445312 L 307.308594 75.953125 L 264.425781 100.714844 Z M 308.140625 75.953125 L 308.140625 26.445312 L 325.546875 36.492188 L 351.023438 51.199219 L 351.023438 100.714844 Z M 351.855469 51.199219 L 392.941406 27.480469 L 394.734375 26.445312 L 394.734375 75.953125 L 351.855469 100.714844 Z M 395.570312 75.953125 L 395.570312 26.445312 L 397.363281 27.480469 L 438.449219 51.199219 L 438.449219 100.714844 Z M 439.285156 51.199219 L 480.371094 27.480469 L 482.164062 26.445312 L 482.164062 75.953125 L 439.285156 100.714844 Z M 483 75.953125 L 483 26.445312 L 484.792969 27.480469 L 525.878906 51.199219 L 525.878906 100.714844 Z M 526.714844 51.199219 L 567.796875 27.480469 L 569.59375 26.445312 L 569.59375 75.953125 L 526.714844 100.714844 Z M 570.429688 75.953125 L 570.429688 26.445312 L 572.222656 27.480469 L 613.308594 51.199219 L 613.308594 100.714844 Z M 657.023438 75.953125 L 614.140625 100.714844 L 614.140625 51.199219 L 655.226562 27.480469 L 657.023438 26.445312 Z M 657.023438 75.953125 " fill-opacity="1" fill-rule="nonzero"/></g><g clip-path="url(#e7e114bcd9)"><path fill="#ff5722" d="M 658.273438 328.589844 L 657.855469 328.351562 L 657.855469 327.871094 L 657.441406 328.109375 L 613.726562 302.867188 L 570.011719 328.109375 L 526.296875 302.867188 L 482.582031 328.109375 L 438.867188 302.867188 L 395.152344 328.109375 L 351.4375 302.867188 L 308.089844 327.898438 L 307.722656 328.109375 L 307.355469 327.898438 L 264.007812 302.867188 L 220.660156 327.898438 L 220.292969 328.109375 L 219.957031 327.914062 L 176.578125 302.867188 L 133.230469 327.898438 L 132.863281 328.109375 L 132.496094 327.898438 L 89.148438 302.867188 L 45.433594 328.109375 L 45.019531 327.871094 L 45.019531 328.351562 L 44.601562 328.589844 L 45.019531 328.832031 L 45.019531 379.300781 L 88.734375 404.546875 L 88.734375 405.027344 L 89.148438 404.785156 L 89.566406 405.027344 L 89.566406 404.546875 L 132.863281 379.542969 L 176.164062 404.546875 L 176.164062 405.027344 L 176.578125 404.785156 L 176.996094 405.027344 L 176.996094 404.546875 L 220.292969 379.542969 L 263.59375 404.546875 L 263.59375 405.027344 L 264.007812 404.785156 L 264.425781 405.027344 L 264.425781 404.546875 L 307.722656 379.542969 L 351.023438 404.546875 L 351.023438 405.027344 L 351.4375 404.785156 L 351.855469 405.027344 L 351.855469 404.546875 L 395.152344 379.542969 L 438.449219 404.542969 L 438.449219 405.027344 L 438.867188 404.785156 L 439.285156 405.027344 L 439.285156 404.542969 L 482.582031 379.542969 L 525.878906 404.542969 L 525.878906 405.027344 L 526.296875 404.785156 L 526.714844 405.027344 L 526.714844 404.542969 L 570.011719 379.542969 L 613.308594 404.542969 L 613.308594 405.027344 L 613.726562 404.785156 L 614.140625 405.027344 L 614.140625 404.542969 L 657.648438 379.421875 L 657.855469 379.300781 L 657.855469 328.832031 Z M 656.609375 328.589844 L 613.726562 353.34375 L 570.84375 328.589844 L 613.726562 303.828125 Z M 569.179688 328.589844 L 526.296875 353.34375 L 483.414062 328.589844 L 526.296875 303.828125 Z M 481.75 328.589844 L 438.867188 353.34375 L 395.984375 328.589844 L 438.867188 303.828125 Z M 394.320312 328.589844 L 351.4375 353.34375 L 308.554688 328.589844 L 351.4375 303.828125 Z M 306.890625 328.589844 L 264.007812 353.34375 L 221.125 328.589844 L 264.007812 303.828125 Z M 219.460938 328.589844 L 176.578125 353.34375 L 133.695312 328.589844 L 176.578125 303.828125 Z M 89.148438 303.828125 L 132.03125 328.589844 L 89.148438 353.34375 L 46.265625 328.589844 Z M 45.851562 378.820312 L 45.851562 329.3125 L 65.21875 340.492188 L 88.734375 354.066406 L 88.734375 403.582031 Z M 89.566406 354.066406 L 132.449219 329.3125 L 132.449219 378.820312 L 89.566406 403.582031 Z M 133.28125 378.820312 L 133.28125 329.3125 L 152.648438 340.492188 L 176.164062 354.066406 L 176.164062 403.582031 Z M 176.996094 354.066406 L 219.878906 329.3125 L 219.878906 378.820312 L 176.996094 403.582031 Z M 220.710938 378.820312 L 220.710938 329.3125 L 240.078125 340.492188 L 263.59375 354.066406 L 263.59375 403.582031 Z M 264.425781 354.066406 L 307.308594 329.3125 L 307.308594 378.820312 L 264.425781 403.582031 Z M 308.140625 378.820312 L 308.140625 329.3125 L 327.507812 340.492188 L 351.023438 354.066406 L 351.023438 403.582031 Z M 351.855469 354.066406 L 394.734375 329.3125 L 394.734375 378.820312 L 351.855469 403.582031 Z M 395.570312 378.820312 L 395.570312 329.3125 L 399.992188 331.867188 L 438.449219 354.066406 L 438.449219 403.582031 Z M 439.285156 354.066406 L 482.164062 329.3125 L 482.164062 378.820312 L 439.285156 403.582031 Z M 483 378.820312 L 483 329.3125 L 487.421875 331.867188 L 525.878906 354.066406 L 525.878906 403.582031 Z M 526.714844 354.066406 L 569.59375 329.3125 L 569.59375 378.820312 L 526.714844 403.582031 Z M 570.429688 378.820312 L 570.429688 329.3125 L 574.851562 331.867188 L 613.308594 354.066406 L 613.308594 403.582031 Z M 657.023438 378.820312 L 614.140625 403.582031 L 614.140625 354.066406 L 657.023438 329.3125 Z M 657.023438 378.820312 " fill-opacity="1" fill-rule="nonzero"/></g></g></g></g><path fill="#ffc131" d="M 703.347656 115.5625 C 703.347656 124.082031 696.425781 130.988281 687.890625 130.988281 C 679.351562 130.988281 672.429688 124.082031 672.429688 115.5625 C 672.429688 107.042969 679.351562 100.132812 687.890625 100.132812 C 696.425781 100.132812 703.347656 107.042969 703.347656 115.5625 Z M 703.347656 115.5625 " fill-opacity="1" fill-rule="nonzero"/><path fill="#24c8db" d="M 646.433594 159.742188 C 646.433594 158.726562 646.53125 157.722656 646.730469 156.730469 C 646.925781 155.738281 647.21875 154.773438 647.609375 153.835938 C 647.996094 152.902344 648.472656 152.011719 649.039062 151.167969 C 649.601562 150.328125 650.242188 149.546875 650.960938 148.832031 C 651.675781 148.117188 652.457031 147.476562 653.300781 146.914062 C 654.148438 146.351562 655.039062 145.875 655.976562 145.488281 C 656.914062 145.101562 657.878906 144.808594 658.875 144.609375 C 659.871094 144.410156 660.875 144.3125 661.890625 144.3125 C 662.90625 144.3125 663.910156 144.410156 664.90625 144.609375 C 665.902344 144.808594 666.867188 145.101562 667.808594 145.488281 C 668.746094 145.875 669.636719 146.351562 670.480469 146.914062 C 671.324219 147.476562 672.105469 148.117188 672.820312 148.832031 C 673.539062 149.546875 674.179688 150.328125 674.746094 151.167969 C 675.308594 152.011719 675.785156 152.902344 676.171875 153.835938 C 676.5625 154.773438 676.855469 155.738281 677.050781 156.730469 C 677.25 157.722656 677.351562 158.726562 677.351562 159.742188 C 677.351562 160.753906 677.25 161.757812 677.050781 162.75 C 676.855469 163.742188 676.5625 164.707031 676.171875 165.644531 C 675.785156 166.582031 675.308594 167.46875 674.746094 168.3125 C 674.179688 169.152344 673.539062 169.933594 672.820312 170.648438 C 672.105469 171.367188 671.324219 172.003906 670.480469 172.566406 C 669.636719 173.128906 668.746094 173.605469 667.808594 173.992188 C 666.867188 174.382812 665.902344 174.675781 664.90625 174.871094 C 663.910156 175.070312 662.90625 175.167969 661.890625 175.167969 C 660.875 175.167969 659.871094 175.070312 658.875 174.871094 C 657.878906 174.675781 656.914062 174.382812 655.976562 173.992188 C 655.039062 173.605469 654.148438 173.128906 653.300781 172.566406 C 652.457031 172.003906 651.675781 171.367188 650.960938 170.648438 C 650.242188 169.933594 649.601562 169.152344 649.039062 168.3125 C 648.472656 167.46875 647.996094 166.582031 647.609375 165.644531 C 647.21875 164.707031 646.925781 163.742188 646.730469 162.75 C 646.53125 161.757812 646.433594 160.753906 646.433594 159.742188 Z M 646.433594 159.742188 " fill-opacity="1" fill-rule="nonzero"/><g clip-path="url(#2445076bd4)"><path fill="#ffc131" d="M 719.929688 165.035156 C 713.691406 169.058594 706.777344 171.851562 699.5625 173.304688 C 701.039062 169.054688 701.84375 164.492188 701.84375 159.742188 C 701.84375 158.015625 701.738281 156.320312 701.53125 154.652344 C 704.636719 153.574219 707.613281 152.125 710.402344 150.328125 C 717.113281 146 722.425781 139.832031 725.707031 132.5625 C 728.988281 125.296875 730.09375 117.234375 728.898438 109.355469 C 727.699219 101.472656 724.246094 94.105469 718.953125 88.136719 C 713.660156 82.164062 706.753906 77.847656 699.0625 75.699219 C 691.371094 73.550781 683.21875 73.667969 675.589844 76.03125 C 667.960938 78.394531 661.179688 82.90625 656.058594 89.023438 C 655.402344 89.808594 654.777344 90.613281 654.183594 91.4375 C 646.28125 92.316406 638.628906 94.546875 631.550781 98 C 633.851562 90.636719 637.59375 83.765625 642.59375 77.796875 C 649.878906 69.089844 659.53125 62.667969 670.386719 59.304688 C 681.242188 55.941406 692.839844 55.777344 703.789062 58.835938 C 714.734375 61.890625 724.566406 68.035156 732.097656 76.53125 C 739.628906 85.027344 744.542969 95.511719 746.246094 106.730469 C 747.949219 117.945312 746.375 129.414062 741.707031 139.753906 C 737.035156 150.097656 729.472656 158.875 719.929688 165.035156 Z M 632.253906 108.742188 L 646.722656 110.515625 C 647.066406 107.71875 647.695312 104.972656 648.589844 102.328125 C 642.851562 103.640625 637.34375 105.804688 632.253906 108.742188 Z M 632.253906 108.742188 " fill-opacity="1" fill-rule="evenodd"/></g><g clip-path="url(#59eeec642b)"><path fill="#24c8db" d="M 629.75 110.269531 C 636.039062 106.214844 643.007812 103.410156 650.277344 101.96875 C 648.632812 106.421875 647.738281 111.238281 647.738281 116.261719 C 647.738281 117.765625 647.816406 119.25 647.972656 120.710938 C 644.933594 121.785156 642.011719 123.210938 639.277344 124.976562 C 632.570312 129.304688 627.253906 135.472656 623.972656 142.738281 C 620.691406 150.007812 619.585938 158.066406 620.78125 165.945312 C 621.980469 173.828125 625.433594 181.199219 630.726562 187.167969 C 636.019531 193.136719 642.925781 197.457031 650.617188 199.605469 C 658.3125 201.75 666.460938 201.636719 674.089844 199.273438 C 681.71875 196.90625 688.5 192.394531 693.621094 186.277344 C 694.28125 185.492188 694.90625 184.683594 695.503906 183.851562 C 703.414062 182.960938 711.070312 180.714844 718.148438 177.246094 C 715.847656 184.628906 712.097656 191.519531 707.085938 197.507812 C 699.800781 206.210938 690.148438 212.632812 679.292969 215.996094 C 668.4375 219.359375 656.839844 219.523438 645.890625 216.46875 C 634.945312 213.414062 625.113281 207.265625 617.582031 198.769531 C 610.050781 190.273438 605.136719 179.789062 603.433594 168.574219 C 601.730469 157.359375 603.304688 145.890625 607.976562 135.546875 C 612.644531 125.203125 620.207031 116.425781 629.75 110.269531 Z M 717.34375 166.550781 C 717.269531 166.59375 717.191406 166.636719 717.117188 166.679688 C 717.191406 166.636719 717.269531 166.59375 717.34375 166.550781 Z M 717.34375 166.550781 " fill-opacity="1" fill-rule="evenodd"/></g><g fill="#0c212a" fill-opacity="1"><g transform="translate(473.218436, 330.148747)"><g><path d="M 47.4375 -61.59375 C 48.425781 -61.59375 48.921875 -61.097656 48.921875 -60.109375 L 48.921875 -52.359375 C 48.921875 -51.359375 48.425781 -50.859375 47.4375 -50.859375 L 32.203125 -50.859375 C 31.859375 -50.859375 31.6875 -50.6875 31.6875 -50.34375 L 31.6875 -1.5 C 31.6875 -0.5 31.1875 0 30.1875 0 L 20.765625 0 C 19.765625 0 19.265625 -0.5 19.265625 -1.5 L 19.265625 -50.34375 C 19.265625 -50.6875 19.09375 -50.859375 18.75 -50.859375 L 3.953125 -50.859375 C 2.960938 -50.859375 2.46875 -51.359375 2.46875 -52.359375 L 2.46875 -60.109375 C 2.46875 -61.097656 2.960938 -61.59375 3.953125 -61.59375 Z M 47.4375 -61.59375 "/></g></g></g><g fill="#0c212a" fill-opacity="1"><g transform="translate(527.952159, 330.148747)"><g><path d="M 22.703125 -45.9375 C 26.515625 -45.9375 29.914062 -45.273438 32.90625 -43.953125 C 35.90625 -42.628906 38.238281 -40.820312 39.90625 -38.53125 C 41.582031 -36.25 42.421875 -33.703125 42.421875 -30.890625 L 42.421875 -1.5 C 42.421875 -0.5 41.921875 0 40.921875 0 L 31.5 0 C 30.507812 0 30.015625 -0.5 30.015625 -1.5 L 30.015625 -3.609375 C 30.015625 -3.835938 29.953125 -3.96875 29.828125 -4 C 29.710938 -4.03125 29.566406 -3.957031 29.390625 -3.78125 C 26.691406 -0.789062 22.675781 0.703125 17.34375 0.703125 C 12.820312 0.703125 9.179688 -0.410156 6.421875 -2.640625 C 3.660156 -4.867188 2.28125 -8.15625 2.28125 -12.5 C 2.28125 -17.007812 3.863281 -20.507812 7.03125 -23 C 10.207031 -25.5 14.726562 -26.75 20.59375 -26.75 L 29.484375 -26.75 C 29.835938 -26.75 30.015625 -26.925781 30.015625 -27.28125 L 30.015625 -29.125 C 30.015625 -31.0625 29.410156 -32.570312 28.203125 -33.65625 C 27.003906 -34.738281 25.257812 -35.28125 22.96875 -35.28125 C 21.207031 -35.28125 19.753906 -34.988281 18.609375 -34.40625 C 17.460938 -33.820312 16.6875 -33 16.28125 -31.9375 C 15.925781 -31.125 15.335938 -30.742188 14.515625 -30.796875 L 4.75 -32.03125 C 4.28125 -32.09375 3.910156 -32.222656 3.640625 -32.421875 C 3.378906 -32.628906 3.28125 -32.910156 3.34375 -33.265625 C 3.632812 -35.671875 4.644531 -37.84375 6.375 -39.78125 C 8.101562 -41.71875 10.390625 -43.226562 13.234375 -44.3125 C 16.085938 -45.394531 19.242188 -45.9375 22.703125 -45.9375 Z M 20.9375 -8.53125 C 23.46875 -8.53125 25.613281 -9.203125 27.375 -10.546875 C 29.132812 -11.898438 30.015625 -13.632812 30.015625 -15.75 L 30.015625 -18.828125 C 30.015625 -19.179688 29.835938 -19.359375 29.484375 -19.359375 L 23.234375 -19.359375 C 20.585938 -19.359375 18.503906 -18.859375 16.984375 -17.859375 C 15.460938 -16.867188 14.703125 -15.460938 14.703125 -13.640625 C 14.703125 -12.054688 15.269531 -10.804688 16.40625 -9.890625 C 17.550781 -8.984375 19.0625 -8.53125 20.9375 -8.53125 Z M 20.9375 -8.53125 "/></g></g></g><g fill="#0c212a" fill-opacity="1"><g transform="translate(577.670109, 330.148747)"><g><path d="M 30.96875 -43.734375 C 30.96875 -44.734375 31.46875 -45.234375 32.46875 -45.234375 L 41.890625 -45.234375 C 42.890625 -45.234375 43.390625 -44.734375 43.390625 -43.734375 L 43.390625 -1.5 C 43.390625 -0.5 42.890625 0 41.890625 0 L 32.46875 0 C 31.46875 0 30.96875 -0.5 30.96875 -1.5 L 30.96875 -3.875 C 30.96875 -4.101562 30.894531 -4.234375 30.75 -4.265625 C 30.601562 -4.296875 30.472656 -4.222656 30.359375 -4.046875 C 28.066406 -0.941406 24.457031 0.609375 19.53125 0.609375 C 15.070312 0.609375 11.40625 -0.738281 8.53125 -3.4375 C 5.65625 -6.132812 4.21875 -9.914062 4.21875 -14.78125 L 4.21875 -43.734375 C 4.21875 -44.734375 4.71875 -45.234375 5.71875 -45.234375 L 15.046875 -45.234375 C 16.046875 -45.234375 16.546875 -44.734375 16.546875 -43.734375 L 16.546875 -17.859375 C 16.546875 -15.515625 17.175781 -13.609375 18.4375 -12.140625 C 19.695312 -10.671875 21.441406 -9.9375 23.671875 -9.9375 C 25.660156 -9.9375 27.300781 -10.535156 28.59375 -11.734375 C 29.882812 -12.941406 30.675781 -14.515625 30.96875 -16.453125 Z M 30.96875 -43.734375 "/></g></g></g><g fill="#0c212a" fill-opacity="1"><g transform="translate(628.883985, 330.148747)"><g><path d="M 27.109375 -45.84375 C 28.984375 -45.84375 30.535156 -45.492188 31.765625 -44.796875 C 32.472656 -44.441406 32.738281 -43.820312 32.5625 -42.9375 L 30.890625 -33.703125 C 30.828125 -33.171875 30.664062 -32.847656 30.40625 -32.734375 C 30.144531 -32.617188 29.71875 -32.617188 29.125 -32.734375 C 28.1875 -32.972656 27.335938 -33.09375 26.578125 -33.09375 C 26.160156 -33.09375 25.484375 -33.03125 24.546875 -32.90625 C 22.441406 -32.726562 20.65625 -31.953125 19.1875 -30.578125 C 17.71875 -29.203125 16.984375 -27.367188 16.984375 -25.078125 L 16.984375 -1.5 C 16.984375 -0.5 16.484375 0 15.484375 0 L 6.078125 0 C 5.078125 0 4.578125 -0.5 4.578125 -1.5 L 4.578125 -43.734375 C 4.578125 -44.734375 5.078125 -45.234375 6.078125 -45.234375 L 15.484375 -45.234375 C 16.484375 -45.234375 16.984375 -44.734375 16.984375 -43.734375 L 16.984375 -41.015625 C 16.984375 -40.773438 17.039062 -40.625 17.15625 -40.5625 C 17.28125 -40.507812 17.425781 -40.570312 17.59375 -40.75 C 19.945312 -44.144531 23.117188 -45.84375 27.109375 -45.84375 Z M 27.109375 -45.84375 "/></g></g></g><g fill="#0c212a" fill-opacity="1"><g transform="translate(665.842493, 330.148747)"><g><path d="M 11.4375 -49.546875 C 9.207031 -49.546875 7.390625 -50.234375 5.984375 -51.609375 C 4.578125 -52.992188 3.875 -54.769531 3.875 -56.9375 C 3.875 -59.101562 4.578125 -60.875 5.984375 -62.25 C 7.390625 -63.632812 9.207031 -64.328125 11.4375 -64.328125 C 13.726562 -64.328125 15.5625 -63.648438 16.9375 -62.296875 C 18.320312 -60.953125 19.015625 -59.164062 19.015625 -56.9375 C 19.015625 -54.707031 18.320312 -52.914062 16.9375 -51.5625 C 15.5625 -50.21875 13.726562 -49.546875 11.4375 -49.546875 Z M 6.78125 0 C 5.78125 0 5.28125 -0.5 5.28125 -1.5 L 5.28125 -43.734375 C 5.28125 -44.734375 5.78125 -45.234375 6.78125 -45.234375 L 16.1875 -45.234375 C 17.1875 -45.234375 17.6875 -44.734375 17.6875 -43.734375 L 17.6875 -1.5 C 17.6875 -0.5 17.1875 0 16.1875 0 Z M 6.78125 0 "/></g></g></g><g fill="#0c212a" fill-opacity="1"><g transform="translate(691.977478, 330.148747)"><g/></g></g><g fill="#0c212a" fill-opacity="1"><g transform="translate(712.832686, 330.148747)"><g><path d="M 44.96875 0 C 44.144531 0 43.585938 -0.410156 43.296875 -1.234375 L 40.828125 -9.421875 C 40.773438 -9.710938 40.597656 -9.859375 40.296875 -9.859375 L 18.75 -9.859375 C 18.445312 -9.859375 18.269531 -9.710938 18.21875 -9.421875 L 15.75 -1.234375 C 15.457031 -0.410156 14.898438 0 14.078125 0 L 3.875 0 C 3.34375 0 2.957031 -0.160156 2.71875 -0.484375 C 2.488281 -0.804688 2.460938 -1.203125 2.640625 -1.671875 L 21.390625 -60.375 C 21.679688 -61.1875 22.238281 -61.59375 23.0625 -61.59375 L 35.984375 -61.59375 C 36.804688 -61.59375 37.363281 -61.1875 37.65625 -60.375 L 56.40625 -1.671875 C 56.46875 -1.554688 56.5 -1.378906 56.5 -1.140625 C 56.5 -0.785156 56.378906 -0.503906 56.140625 -0.296875 C 55.910156 -0.0976562 55.585938 0 55.171875 0 Z M 21.296875 -20.0625 C 21.234375 -19.65625 21.378906 -19.453125 21.734375 -19.453125 L 37.3125 -19.453125 C 37.664062 -19.453125 37.8125 -19.65625 37.75 -20.0625 L 29.828125 -46.90625 C 29.773438 -47.132812 29.671875 -47.25 29.515625 -47.25 C 29.367188 -47.25 29.238281 -47.132812 29.125 -46.90625 Z M 21.296875 -20.0625 "/></g></g></g><g fill="#0c212a" fill-opacity="1"><g transform="translate(775.134066, 330.148747)"><g><path d="M 45.0625 -33 C 46.050781 -30.1875 46.546875 -26.664062 46.546875 -22.4375 C 46.546875 -18.09375 45.988281 -14.457031 44.875 -11.53125 C 43.582031 -7.769531 41.457031 -4.773438 38.5 -2.546875 C 35.539062 -0.316406 32.066406 0.796875 28.078125 0.796875 C 23.734375 0.796875 20.390625 -0.640625 18.046875 -3.515625 C 17.921875 -3.691406 17.785156 -3.75 17.640625 -3.6875 C 17.492188 -3.632812 17.421875 -3.488281 17.421875 -3.25 L 17.421875 14.875 C 17.421875 15.875 16.921875 16.375 15.921875 16.375 L 6.515625 16.375 C 5.515625 16.375 5.015625 15.875 5.015625 14.875 L 5.015625 -43.734375 C 5.015625 -44.734375 5.515625 -45.234375 6.515625 -45.234375 L 15.921875 -45.234375 C 16.921875 -45.234375 17.421875 -44.734375 17.421875 -43.734375 L 17.421875 -41.359375 C 17.421875 -41.128906 17.492188 -41 17.640625 -40.96875 C 17.785156 -40.9375 17.921875 -41.007812 18.046875 -41.1875 C 20.441406 -44.351562 23.785156 -45.9375 28.078125 -45.9375 C 32.066406 -45.9375 35.597656 -44.75 38.671875 -42.375 C 41.753906 -40 43.882812 -36.875 45.0625 -33 Z M 31.421875 -13.46875 C 32.828125 -15.8125 33.53125 -18.890625 33.53125 -22.703125 C 33.53125 -26.160156 32.914062 -29.035156 31.6875 -31.328125 C 30.269531 -33.847656 28.125 -35.109375 25.25 -35.109375 C 22.675781 -35.109375 20.679688 -33.847656 19.265625 -31.328125 C 18.097656 -29.160156 17.515625 -26.253906 17.515625 -22.609375 C 17.515625 -18.796875 18.128906 -15.773438 19.359375 -13.546875 C 20.828125 -11.265625 22.789062 -10.125 25.25 -10.125 C 27.945312 -10.125 30.003906 -11.238281 31.421875 -13.46875 Z M 31.421875 -13.46875 "/></g></g></g><g fill="#0c212a" fill-opacity="1"><g transform="translate(827.579887, 330.148747)"><g><path d="M 45.0625 -33 C 46.050781 -30.1875 46.546875 -26.664062 46.546875 -22.4375 C 46.546875 -18.09375 45.988281 -14.457031 44.875 -11.53125 C 43.582031 -7.769531 41.457031 -4.773438 38.5 -2.546875 C 35.539062 -0.316406 32.066406 0.796875 28.078125 0.796875 C 23.734375 0.796875 20.390625 -0.640625 18.046875 -3.515625 C 17.921875 -3.691406 17.785156 -3.75 17.640625 -3.6875 C 17.492188 -3.632812 17.421875 -3.488281 17.421875 -3.25 L 17.421875 14.875 C 17.421875 15.875 16.921875 16.375 15.921875 16.375 L 6.515625 16.375 C 5.515625 16.375 5.015625 15.875 5.015625 14.875 L 5.015625 -43.734375 C 5.015625 -44.734375 5.515625 -45.234375 6.515625 -45.234375 L 15.921875 -45.234375 C 16.921875 -45.234375 17.421875 -44.734375 17.421875 -43.734375 L 17.421875 -41.359375 C 17.421875 -41.128906 17.492188 -41 17.640625 -40.96875 C 17.785156 -40.9375 17.921875 -41.007812 18.046875 -41.1875 C 20.441406 -44.351562 23.785156 -45.9375 28.078125 -45.9375 C 32.066406 -45.9375 35.597656 -44.75 38.671875 -42.375 C 41.753906 -40 43.882812 -36.875 45.0625 -33 Z M 31.421875 -13.46875 C 32.828125 -15.8125 33.53125 -18.890625 33.53125 -22.703125 C 33.53125 -26.160156 32.914062 -29.035156 31.6875 -31.328125 C 30.269531 -33.847656 28.125 -35.109375 25.25 -35.109375 C 22.675781 -35.109375 20.679688 -33.847656 19.265625 -31.328125 C 18.097656 -29.160156 17.515625 -26.253906 17.515625 -22.609375 C 17.515625 -18.796875 18.128906 -15.773438 19.359375 -13.546875 C 20.828125 -11.265625 22.789062 -10.125 25.25 -10.125 C 27.945312 -10.125 30.003906 -11.238281 31.421875 -13.46875 Z M 31.421875 -13.46875 "/></g></g></g></svg>